<?xml version="1.0" standalone="no"?>
<!DOCTYPE svg PUBLIC "-//W3C//DTD SVG 20010904//EN"
 "http://www.w3.org/TR/2001/REC-SVG-20010904/DTD/svg10.dtd">
<svg version="1.0" xmlns="http://www.w3.org/2000/svg"
 width="60.000000pt" height="64.000000pt" viewBox="0 0 60.000000 64.000000"
 preserveAspectRatio="xMidYMid meet">
<metadata>
Created by potrace 1.16, written by Peter Selinger 2001-2019
</metadata>
<g transform="translate(0.000000,64.000000) scale(0.100000,-0.100000)"
fill="#000000" stroke="none">
<path d="M0 320 l1 -320 299 0 300 0 0 320 -1 320 -299 0 -300 -1 0 -319z
m318 273 c-10 -2 -28 -2 -40 0 -13 2 -5 4 17 4 22 1 32 -1 23 -4z m-58 -25 c8
-21 9 -22 10 -3 2 17 3 16 10 -5 l8 -25 7 23 c8 24 25 30 25 10 1 -8 6 -6 14
5 16 21 26 21 70 1 30 -15 33 -20 25 -41 -8 -22 -8 -23 14 -8 22 14 25 13 49
-13 44 -46 70 -107 73 -174 l4 -63 -9 63 c-12 83 -84 214 -97 176 -2 -6 -10
-19 -17 -29 -13 -18 -14 -17 -36 3 -26 24 -40 28 -40 11 0 -9 -25 -10 -88 -6
-72 5 -93 4 -111 -9 -21 -15 -24 -15 -45 5 -12 12 -27 18 -31 14 -5 -5 -3 0 5
10 13 17 15 17 37 -10 16 -19 21 -21 14 -7 -16 33 -7 55 30 75 46 24 68 23 79
-3z m-223 -190 c-3 -7 -5 -2 -5 12 0 14 2 19 5 13 2 -7 2 -19 0 -25z m443 -17
c0 -5 -20 -9 -45 -9 -25 0 -43 4 -39 9 3 5 23 9 45 9 21 0 39 -4 39 -9z m-453
-63 c-2 -13 -4 -3 -4 22 0 25 2 35 4 23 2 -13 2 -33 0 -45z m53 36 c0 -8 -7
-14 -15 -14 -15 0 -21 21 -9 33 10 9 24 -2 24 -19z m452 -6 c-15 -15 -26 -4
-18 18 5 13 9 15 18 6 9 -9 9 -15 0 -24z m8 -54 c0 -8 -4 -14 -10 -14 -5 0 -7
-7 -4 -15 4 -8 2 -15 -4 -15 -5 0 -9 -8 -8 -17 1 -13 -5 -17 -19 -15 -28 5
-28 7 -11 41 9 16 16 37 16 45 0 9 7 12 20 9 11 -3 20 -12 20 -19z m-450 3 c0
-7 8 -29 19 -50 15 -30 16 -38 5 -48 -18 -15 -33 -3 -50 37 -20 48 -18 74 6
74 11 0 20 -6 20 -13z m-13 -103 c11 -17 13 -25 4 -20 -15 10 -51 84 -50 106
0 8 6 -1 14 -22 7 -20 22 -49 32 -64z m473 59 c-11 -17 -11 -17 -6 0 3 10 6
24 7 30 0 9 2 9 5 0 3 -7 0 -20 -6 -30z m-70 -53 c8 -5 11 -12 7 -16 -4 -4
-15 0 -24 9 -18 18 -8 23 17 7z m-268 -50 c5 0 4 -9 -2 -21 -12 -21 -37 -21
-32 0 1 7 -2 10 -8 6 -5 -3 -19 -1 -30 5 -17 9 -19 14 -9 26 10 12 9 13 -7 7
-16 -6 -17 -5 -6 9 12 15 16 14 49 -8 20 -13 40 -24 45 -24z m241 26 c4 -10 1
-13 -9 -9 -7 3 -14 0 -14 -7 0 -6 -5 -8 -12 -4 -7 4 -8 3 -4 -4 4 -6 14 -8 24
-5 14 6 15 4 5 -9 -7 -8 -10 -17 -7 -21 8 -8 -55 -39 -69 -33 -7 2 -3 5 8 6
17 2 16 3 -5 9 -14 4 -31 3 -37 -2 -10 -7 -13 -4 -13 11 0 14 10 24 33 31 17
6 43 20 57 31 30 24 36 24 43 6z m-146 -72 c-3 -19 1 -24 22 -27 14 -2 -1 -4
-34 -4 -47 -1 -53 1 -30 7 17 4 22 8 13 9 -10 0 -18 6 -18 12 0 6 -7 3 -16 -5
-18 -18 -33 -20 -54 -6 -11 8 -8 9 13 4 15 -3 27 -2 26 2 -6 33 2 39 42 36 37
-4 40 -7 36 -28z"/>
<path d="M200 570 c-8 -5 -10 -10 -4 -10 6 0 17 -12 24 -27 14 -32 25 -16 16
22 -7 27 -13 30 -36 15z"/>
<path d="M347 553 c-7 -39 3 -50 19 -22 17 31 17 49 0 49 -7 0 -16 -12 -19
-27z"/>
<path d="M161 551 c-9 -6 -10 -11 -2 -15 6 -4 11 -1 11 6 0 9 3 9 10 -2 6 -9
10 -10 10 -3 0 17 -14 23 -29 14z"/>
<path d="M400 549 c0 -5 5 -7 10 -4 6 3 10 8 10 11 0 2 -4 4 -10 4 -5 0 -10
-5 -10 -11z"/>
<path d="M390 94 c0 -8 3 -14 8 -14 9 0 39 19 32 21 -3 0 -13 2 -22 4 -10 2
-18 -3 -18 -11z"/>
</g>
</svg>
